<svg width="800" height="528" viewBox="0 0 800 528" fill="none" xmlns="http://www.w3.org/2000/svg">
<path d="M564.466 13.0571L785.794 232.511L787.645 234.228C795.05 241.572 799.359 251.257 800 262.699L799.963 266.546C799.426 275.61 795.962 284.27 789.135 292.029L786.553 294.695L564.466 514.943C548.042 531.23 521.486 531.23 505.061 514.943C488.539 498.559 488.539 471.921 505.06 455.539L658.405 303.451L42.094 303.466C18.8856 303.466 0 284.738 0 261.548C0 238.358 18.8858 219.63 42.0937 219.63L653.457 219.615L505.061 72.4628C488.539 56.0788 488.539 29.4411 505.061 13.0571C521.486 -3.22955 548.042 -3.22955 564.466 13.0571Z" fill="white"/>
</svg>
