<svg width="668" height="668" viewBox="0 0 668 668" fill="none" xmlns="http://www.w3.org/2000/svg">
<path d="M334 667.333C518.095 667.333 667.333 518.095 667.333 334C667.333 149.905 518.095 0.666687 334 0.666687C149.905 0.666687 0.666687 149.905 0.666687 334C0.666687 518.095 149.905 667.333 334 667.333Z" fill="#D8D8D8"/>
<path d="M381 334L457.667 257.667C463.943 251.39 467.47 242.877 467.47 234C467.47 225.123 463.943 216.61 457.667 210.333C451.39 204.057 442.877 200.53 434 200.53C425.123 200.53 416.61 204.057 410.333 210.333L334 287L257.667 210.333C251.39 204.057 242.877 200.53 234 200.53C225.123 200.53 216.61 204.057 210.333 210.333C204.057 216.61 200.53 225.123 200.53 234C200.53 242.877 204.057 251.39 210.333 257.667L287 334L210.333 410.333C207.209 413.432 204.729 417.119 203.037 421.181C201.345 425.243 200.473 429.6 200.473 434C200.473 438.4 201.345 442.757 203.037 446.819C204.729 450.881 207.209 454.568 210.333 457.667C213.432 460.791 217.119 463.271 221.181 464.963C225.243 466.655 229.6 467.527 234 467.527C238.4 467.527 242.757 466.655 246.819 464.963C250.881 463.271 254.568 460.791 257.667 457.667L334 381L410.333 457.667C413.432 460.791 417.119 463.271 421.181 464.963C425.243 466.655 429.6 467.527 434 467.527C438.4 467.527 442.757 466.655 446.819 464.963C450.881 463.271 454.568 460.791 457.667 457.667C460.791 454.568 463.271 450.881 464.963 446.819C466.655 442.757 467.527 438.4 467.527 434C467.527 429.6 466.655 425.243 464.963 421.181C463.271 417.119 460.791 413.432 457.667 410.333L381 334Z" fill="white"/>
</svg>
