<svg width="31" height="31" viewBox="0 0 31 31" fill="none" xmlns="http://www.w3.org/2000/svg">
<path d="M20.0087 24.15C19.4029 24.15 18.8938 23.9429 18.4813 23.5288C18.0688 23.1144 17.8625 22.6048 17.8625 22C17.8625 21.8833 17.9167 21.625 18.025 21.225L10.8125 16.925C10.6125 17.175 10.3633 17.3708 10.065 17.5125C9.76683 17.6542 9.44733 17.725 9.1065 17.725C8.52133 17.725 8.024 17.5144 7.6145 17.0933C7.20483 16.6721 7 16.1679 7 15.5808C7 14.9936 7.20542 14.4875 7.61625 14.0625C8.02692 13.6375 8.52567 13.425 9.1125 13.425C9.44967 13.425 9.76633 13.4947 10.0625 13.6342C10.3588 13.7736 10.6047 13.9663 10.8 14.2125L18.025 9.9355C17.9667 9.81183 17.925 9.68333 17.9 9.55C17.875 9.41667 17.8625 9.27917 17.8625 9.1375C17.8625 8.54367 18.07 8.039 18.485 7.6235C18.8998 7.20783 19.4082 7 20.01 7C20.6117 7 21.1188 7.20867 21.5313 7.626C21.9438 8.04333 22.15 8.55008 22.15 9.14625C22.15 9.74592 21.942 10.2527 21.526 10.6667C21.11 11.0806 20.6048 11.2875 20.0105 11.2875C19.6657 11.2875 19.3507 11.2146 19.0655 11.0688C18.7803 10.9229 18.5377 10.7208 18.3375 10.4625L11.125 14.7625C11.175 14.8958 11.2146 15.0318 11.2438 15.1705C11.2729 15.309 11.2875 15.4445 11.2875 15.577C11.2875 15.7093 11.275 15.8418 11.25 15.9743C11.225 16.1069 11.1875 16.24 11.1375 16.3735L18.3375 20.675C18.534 20.425 18.7758 20.225 19.0628 20.075C19.3499 19.925 19.6658 19.85 20.0105 19.85C20.6048 19.85 21.11 20.0604 21.526 20.4813C21.942 20.9021 22.15 21.4083 22.15 22C22.15 22.6083 21.9418 23.1188 21.5255 23.5313C21.1092 23.9438 20.6036 24.15 20.0087 24.15ZM20.0063 23.5125C20.4389 23.5125 20.7982 23.3697 21.084 23.084C21.3697 22.7982 21.5125 22.4389 21.5125 22.0063C21.5125 21.5771 21.3688 21.2167 21.0813 20.925C20.7938 20.6333 20.4375 20.4875 20.0125 20.4875C19.5757 20.4875 19.2143 20.6342 18.9285 20.9277C18.6428 21.2211 18.5 21.5785 18.5 22C18.5 22.4333 18.6428 22.7938 18.9285 23.0813C19.2143 23.3688 19.5736 23.5125 20.0063 23.5125ZM9.1125 17.0875C9.54467 17.0875 9.90892 16.9447 10.2052 16.659C10.5017 16.3732 10.65 16.0139 10.65 15.5813C10.65 15.1521 10.5027 14.7917 10.208 14.5C9.91333 14.2083 9.54817 14.0625 9.1125 14.0625C8.69467 14.0625 8.34433 14.2092 8.0615 14.5027C7.77883 14.7961 7.6375 15.1535 7.6375 15.575C7.6375 16 7.77883 16.3583 8.0615 16.65C8.34433 16.9417 8.69467 17.0875 9.1125 17.0875ZM20.0063 10.65C20.4389 10.65 20.7982 10.5063 21.084 10.2188C21.3697 9.93125 21.5125 9.57292 21.5125 9.14375C21.5125 8.71458 21.3688 8.35625 21.0813 8.06875C20.7938 7.78125 20.4375 7.6375 20.0125 7.6375C19.5757 7.6375 19.2143 7.78125 18.9285 8.06875C18.6428 8.35625 18.5 8.7125 18.5 9.1375C18.5 9.57083 18.6428 9.93125 18.9285 10.2188C19.2143 10.5063 19.5736 10.65 20.0063 10.65Z" fill="#777777"/>
<circle cx="15.5" cy="15.5" r="14.75" stroke="#D8D8D8" stroke-width="0.5"/>
</svg>
