<svg width="615" height="364" viewBox="0 0 615 364" fill="none" xmlns="http://www.w3.org/2000/svg">
<path d="M610.968 171.904C514.576 55.072 410.936 -2.37599 302.912 0.392009C128.632 5.26401 8.66399 165.784 3.63999 172.608C3.40799 172.928 3.24799 173.28 3.04799 173.616C2.87999 173.872 2.72799 174.136 2.57599 174.416C2.21599 175.056 1.91199 175.696 1.65599 176.36C1.53599 176.68 1.432 177 1.328 177.32C1.128 177.952 0.959989 178.584 0.839989 179.224C0.759989 179.64 0.711989 180.056 0.671989 180.48C0.615989 181.024 0.575989 181.568 0.575989 182.12C0.575989 182.664 0.615989 183.208 0.671989 183.752C0.719989 184.176 0.767989 184.584 0.839989 185.008C0.959989 185.648 1.128 186.28 1.328 186.912C1.432 187.232 1.53599 187.552 1.65599 187.872C1.91199 188.536 2.22399 189.176 2.57599 189.816C2.72799 190.088 2.87199 190.344 3.04799 190.616C3.24799 190.944 3.40799 191.304 3.63999 191.624C8.66399 198.456 128.632 358.968 302.912 363.84C305.608 363.912 308.288 363.952 310.968 363.952C416.08 363.952 516.968 306.248 610.968 192.328C613.44 189.336 614.56 185.712 614.552 182.12C614.56 178.52 613.44 174.896 610.968 171.904ZM304 331.864C168.496 328.176 64.952 215.728 36.976 182.12C64.952 148.512 168.488 36.056 304 32.368C398.576 29.896 490.44 80.28 577.608 182.12C490.448 283.968 398.672 334.6 304 331.864Z" fill="#999999"/>
<path d="M315.576 76.784C257.488 76.784 210.24 124.032 210.24 182.112C210.24 240.2 257.488 287.448 315.576 287.448C373.664 287.448 420.912 240.2 420.912 182.112C420.912 124.032 373.664 76.784 315.576 76.784ZM315.576 255.448C275.136 255.448 242.24 222.552 242.24 182.112C242.24 141.68 275.136 108.784 315.576 108.784C356.016 108.784 388.912 141.68 388.912 182.112C388.912 222.544 356.016 255.448 315.576 255.448Z" fill="#999999"/>
</svg>
