<svg width="644" height="387" viewBox="0 0 644 387" fill="none" xmlns="http://www.w3.org/2000/svg">
<path d="M624.968 186.904C528.576 70.072 424.936 12.624 316.912 15.392C142.632 20.264 22.664 180.784 17.64 187.608C17.408 187.928 17.248 188.28 17.048 188.616C16.88 188.872 16.728 189.136 16.576 189.416C16.216 190.056 15.912 190.696 15.656 191.36C15.536 191.68 15.432 192 15.328 192.32C15.128 192.952 14.96 193.584 14.84 194.224C14.76 194.64 14.712 195.056 14.672 195.48C14.616 196.024 14.576 196.568 14.576 197.12C14.576 197.664 14.616 198.208 14.672 198.752C14.72 199.176 14.768 199.584 14.84 200.008C14.96 200.648 15.128 201.28 15.328 201.912C15.432 202.232 15.536 202.552 15.656 202.872C15.912 203.536 16.224 204.176 16.576 204.816C16.728 205.088 16.872 205.344 17.048 205.616C17.248 205.944 17.408 206.304 17.64 206.624C22.664 213.456 142.632 373.968 316.912 378.84C319.608 378.912 322.288 378.952 324.968 378.952C430.08 378.952 530.968 321.248 624.968 207.328C627.44 204.336 628.56 200.712 628.552 197.12C628.56 193.52 627.44 189.896 624.968 186.904ZM318 346.864C182.496 343.176 78.952 230.728 50.976 197.12C78.952 163.512 182.488 51.056 318 47.368C412.576 44.896 504.44 95.28 591.608 197.12C504.448 298.968 412.672 349.6 318 346.864Z" fill="#999999"/>
<path d="M329.576 91.784C271.488 91.784 224.24 139.032 224.24 197.112C224.24 255.2 271.488 302.448 329.576 302.448C387.664 302.448 434.912 255.2 434.912 197.112C434.912 139.032 387.664 91.784 329.576 91.784ZM329.576 270.448C289.136 270.448 256.24 237.552 256.24 197.112C256.24 156.68 289.136 123.784 329.576 123.784C370.016 123.784 402.912 156.68 402.912 197.112C402.912 237.544 370.016 270.448 329.576 270.448Z" fill="#999999"/>
<path d="M629 15L15 372" stroke="#999999" stroke-width="30" stroke-linecap="round"/>
</svg>
