<svg width="142" height="242" viewBox="0 0 142 242" fill="none" xmlns="http://www.w3.org/2000/svg">
<path d="M90.475 121L6.13749 36.6626C2.1729 32.698 0.190613 27.6521 0.190613 21.5251C0.190613 15.398 2.1729 10.3521 6.13749 6.38755C10.1021 2.42297 15.1479 0.440674 21.275 0.440674C27.4021 0.440674 32.4479 2.42297 36.4125 6.38755L135.887 105.863C138.05 108.025 139.582 110.368 140.483 112.891C141.384 115.414 141.834 118.117 141.834 121C141.834 123.883 141.384 126.587 140.483 129.109C139.582 131.632 138.05 133.975 135.887 136.138L36.4125 235.613C32.4479 239.577 27.4021 241.559 21.275 241.559C15.1479 241.559 10.1021 239.577 6.13749 235.613C2.1729 231.648 0.190613 226.602 0.190613 220.475C0.190613 214.348 2.1729 209.302 6.13749 205.338L90.475 121Z" fill="#C9C9C9"/>
</svg>
