<svg width="109" height="160" viewBox="0 0 109 160" fill="none" xmlns="http://www.w3.org/2000/svg">
<path d="M74.5 0.444329C77 -0.555583 81.5 0.444329 83 0.444329C84.4945 0.444329 88.967 6.40037 89 6.44433C88.9776 6.44184 79.9978 5.4457 78 6.44433C76.004 7.44235 60.063 20.8911 60 20.9443V36.9443L107 130.944V144.944H103V157.944H51V112.444L12 130.944V138.444H16V157.944H7.5V144.944H3V130.944L51.5 36.9443V0.444329H60C60 0.444329 63.0028 3.44888 65.5 3.94433C69.1991 4.67815 72 1.44433 74.5 0.444329ZM19 112.042V116.944H27.2324L51 104.936V49.9443L19 112.042Z" fill="#6B59F6"/>
<path d="M27 143.445C27 139.855 29.9101 136.945 33.5 136.945V136.945C37.0899 136.945 40 139.855 40 143.445V153.445C40 157.034 37.0899 159.945 33.5 159.945V159.945C29.9101 159.945 27 157.034 27 153.445V143.445Z" fill="#FFC31F"/>
<rect x="95" y="125" width="14" height="20" fill="#6B59F6"/>
<rect y="125" width="10" height="20" fill="#6B59F6"/>
</svg>
