<svg width="400" height="400" viewBox="0 0 400 400" fill="none" xmlns="http://www.w3.org/2000/svg">
<path fill-rule="evenodd" clip-rule="evenodd" d="M166.667 366.667C166.667 385.077 181.59 400 200 400C218.41 400 233.333 385.077 233.333 366.667V233.333H366.667C385.077 233.333 400 218.41 400 200C400 181.59 385.077 166.667 366.667 166.667H233.333V33.3333C233.333 14.9237 218.41 0 200 0C181.59 0 166.667 14.9237 166.667 33.3333V166.667H33.3333C14.924 166.667 0 181.59 0 200C0 218.41 14.924 233.333 33.3333 233.333H166.667V366.667Z" fill="#E4E4E4"/>
</svg>
